<svg width="14" height="14" viewBox="0 0 14 14" fill="none" xmlns="http://www.w3.org/2000/svg">
<g id="CheckCircle" clip-path="url(#clip0_2048_6193)">
<g id="Vector">
<path d="M9.92183 4.51514H9.18902C9.02964 4.51514 8.87808 4.5917 8.78433 4.72295L6.32808 8.1292L5.21558 6.58545C5.12183 6.45576 4.97183 6.37764 4.81089 6.37764H4.07808C3.97652 6.37764 3.91714 6.49326 3.97652 6.57607L5.92339 9.27607C5.96938 9.34027 6.03001 9.39257 6.10026 9.42866C6.1705 9.46474 6.24833 9.48356 6.3273 9.48356C6.40627 9.48356 6.4841 9.46474 6.55434 9.42866C6.62458 9.39257 6.68521 9.34027 6.7312 9.27607L10.0218 4.71357C10.0828 4.63076 10.0234 4.51514 9.92183 4.51514Z" fill="#FF9C55"/>
<path d="M7 0C3.13437 0 0 3.13437 0 7C0 10.8656 3.13437 14 7 14C10.8656 14 14 10.8656 14 7C14 3.13437 10.8656 0 7 0ZM7 12.8125C3.79063 12.8125 1.1875 10.2094 1.1875 7C1.1875 3.79063 3.79063 1.1875 7 1.1875C10.2094 1.1875 12.8125 3.79063 12.8125 7C12.8125 10.2094 10.2094 12.8125 7 12.8125Z" fill="#FF9C55"/>
</g>
</g>
<defs>
<clipPath id="clip0_2048_6193">
<rect width="14" height="14" fill="white"/>
</clipPath>
</defs>
</svg>
