<svg width="17" height="16" viewBox="0 0 17 16" fill="none" xmlns="http://www.w3.org/2000/svg">
<g id="Close">
<path id="Vector" d="M9.31816 7.99916L14.0057 2.41166C14.0842 2.31881 14.0182 2.17773 13.8967 2.17773H12.4717C12.3878 2.17773 12.3074 2.21523 12.2521 2.27952L8.38601 6.88845L4.51994 2.27952C4.46637 2.21523 4.38601 2.17773 4.3003 2.17773H2.8753C2.75387 2.17773 2.6878 2.31881 2.76637 2.41166L7.45387 7.99916L2.76637 13.5867C2.74877 13.6074 2.73748 13.6327 2.73384 13.6596C2.73019 13.6865 2.73435 13.7139 2.74582 13.7386C2.75729 13.7632 2.77559 13.784 2.79854 13.7985C2.82149 13.8131 2.84813 13.8207 2.8753 13.8206H4.3003C4.38423 13.8206 4.46459 13.7831 4.51994 13.7188L8.38601 9.10988L12.2521 13.7188C12.3057 13.7831 12.386 13.8206 12.4717 13.8206H13.8967C14.0182 13.8206 14.0842 13.6795 14.0057 13.5867L9.31816 7.99916Z" fill="black" fill-opacity="0.45"/>
</g>
</svg>
