<svg width="14" height="14" viewBox="0 0 14 14" fill="none" xmlns="http://www.w3.org/2000/svg">
<g id="Close">
<path id="Vector" d="M7.8095 6.99902L11.9111 2.10996C11.9798 2.02871 11.922 1.90527 11.8158 1.90527H10.5689C10.4954 1.90527 10.4251 1.93809 10.3767 1.99434L6.99388 6.02715L3.61106 1.99434C3.56419 1.93809 3.49388 1.90527 3.41888 1.90527H2.172C2.06575 1.90527 2.00794 2.02871 2.07669 2.10996L6.17825 6.99902L2.07669 11.8881C2.06129 11.9062 2.05141 11.9283 2.04822 11.9519C2.04503 11.9755 2.04867 11.9994 2.05871 12.021C2.06874 12.0425 2.08475 12.0608 2.10483 12.0735C2.12492 12.0862 2.14823 12.0929 2.172 12.0928H3.41888C3.49231 12.0928 3.56263 12.06 3.61106 12.0037L6.99388 7.9709L10.3767 12.0037C10.4236 12.06 10.4939 12.0928 10.5689 12.0928H11.8158C11.922 12.0928 11.9798 11.9693 11.9111 11.8881L7.8095 6.99902Z" fill="#C8C8C8"/>
</g>
</svg>
