<svg width="39" height="38" viewBox="0 0 39 38" fill="none" xmlns="http://www.w3.org/2000/svg">
<g id="UsergroupAdd">
<path id="Vector" d="M35.6161 30.0225H32.2233V26.6296C32.2233 26.443 32.0706 26.2903 31.884 26.2903H29.8483C29.6617 26.2903 29.509 26.443 29.509 26.6296V30.0225H26.1161C25.9295 30.0225 25.7768 30.1752 25.7768 30.3618V32.3975C25.7768 32.5841 25.9295 32.7368 26.1161 32.7368H29.509V36.1296C29.509 36.3162 29.6617 36.4689 29.8483 36.4689H31.884C32.0706 36.4689 32.2233 36.3162 32.2233 36.1296V32.7368H35.6161C35.8027 32.7368 35.9554 32.5841 35.9554 32.3975V30.3618C35.9554 30.1752 35.8027 30.0225 35.6161 30.0225ZM13.6262 18.4189C13.588 18.0499 13.5668 17.6767 13.5668 17.2993C13.5668 16.6249 13.6304 15.9676 13.7492 15.3272C13.7788 15.1745 13.6983 15.0176 13.5583 14.954C12.9815 14.6952 12.4514 14.339 11.9934 13.8894C11.4536 13.3661 11.0289 12.7361 10.7463 12.0394C10.4637 11.3428 10.3295 10.5949 10.3521 9.84346C10.3902 8.48208 10.9373 7.18855 11.8916 6.2131C12.9391 5.14011 14.3471 4.55485 15.8442 4.57181C17.1971 4.58453 18.5034 5.10618 19.4916 6.03074C19.8266 6.34458 20.115 6.69235 20.3567 7.06556C20.4416 7.19703 20.607 7.25217 20.7512 7.20127C21.4976 6.94257 22.2864 6.7602 23.0965 6.67538C23.334 6.64993 23.4697 6.39547 23.3637 6.18342C21.9853 3.45641 19.1692 1.57337 15.9121 1.52248C11.213 1.45038 7.29425 5.30552 7.29425 10.0046C7.29425 12.668 8.51992 15.043 10.4411 16.5995C9.09246 17.2229 7.84983 18.0839 6.77259 19.1611C4.44849 21.481 3.13376 24.543 3.04893 27.8129C3.0478 27.8581 3.05574 27.9032 3.07229 27.9453C3.08883 27.9875 3.11364 28.0259 3.14526 28.0583C3.17688 28.0907 3.21466 28.1165 3.25639 28.134C3.29812 28.1516 3.34294 28.1607 3.38822 28.1606H5.76746C5.94983 28.1606 6.10251 28.0165 6.10675 27.8341C6.18733 25.3743 7.18398 23.0714 8.93554 21.324C10.1824 20.0772 11.7092 19.212 13.3759 18.7921C13.5371 18.7455 13.6474 18.5886 13.6262 18.4189ZM32.7322 17.2993C32.7322 12.6595 29.0043 8.88922 24.3815 8.81712C19.6824 8.74502 15.7679 12.6002 15.7679 17.2993C15.7679 19.9627 16.9978 22.3377 18.9148 23.8941C17.5522 24.5258 16.3117 25.3929 15.2505 26.4557C12.9264 28.7756 11.6117 31.8377 11.5268 35.1033C11.5257 35.1485 11.5336 35.1936 11.5502 35.2357C11.5667 35.2779 11.5915 35.3163 11.6232 35.3487C11.6548 35.3811 11.6926 35.4069 11.7343 35.4244C11.776 35.442 11.8208 35.4511 11.8661 35.451H14.2411C14.4235 35.451 14.5762 35.3069 14.5804 35.1245C14.661 32.6647 15.6576 30.3618 17.4092 28.6144C19.2371 26.7865 21.663 25.7814 24.2501 25.7814C28.9322 25.7814 32.7322 21.9857 32.7322 17.2993ZM28.0882 21.1374C27.0619 22.1638 25.7005 22.7278 24.2501 22.7278C22.7996 22.7278 21.4382 22.1638 20.4119 21.1374C19.8997 20.628 19.4951 20.0208 19.2219 19.3521C18.9487 18.6833 18.8125 17.9665 18.8215 17.2441C18.8342 15.8531 19.3898 14.5086 20.361 13.512C21.3788 12.4687 22.7402 11.8877 24.1949 11.8707C25.6326 11.858 27.028 12.4178 28.0543 13.4229C29.1061 14.4535 29.6829 15.8319 29.6829 17.2993C29.6786 18.7497 29.1146 20.1111 28.0882 21.1374Z" fill="black" fill-opacity="0.85"/>
</g>
</svg>
