<svg width="39" height="38" viewBox="0 0 39 38" fill="none" xmlns="http://www.w3.org/2000/svg">
<g id="Star">
<path id="Vector" d="M36.2989 12.2641L25.5309 10.6992L20.7173 0.940473C20.5858 0.673286 20.3695 0.456991 20.1023 0.325518C19.4322 -0.00528562 18.6179 0.270384 18.2829 0.940473L13.4693 10.6992L2.70118 12.2641C2.4043 12.3065 2.13287 12.4465 1.92506 12.6586C1.67383 12.9168 1.53539 13.2642 1.54016 13.6244C1.54493 13.9847 1.69252 14.3283 1.95051 14.5798L9.74136 22.1755L7.90073 32.9012C7.85757 33.1507 7.88518 33.4073 7.98043 33.6419C8.07568 33.8765 8.23476 34.0797 8.43964 34.2285C8.64451 34.3773 8.88698 34.4658 9.13955 34.4838C9.39211 34.5018 9.64468 34.4487 9.86859 34.3304L19.5001 29.2666L29.1315 34.3304C29.3945 34.4704 29.6998 34.517 29.9925 34.4661C30.7304 34.3389 31.2266 33.6391 31.0994 32.9012L29.2588 22.1755L37.0496 14.5798C37.2617 14.3719 37.4016 14.1005 37.444 13.8036C37.5585 13.0615 37.0411 12.3744 36.2989 12.2641ZM25.9804 21.1068L27.5114 30.0257L19.5001 25.8186L11.4887 30.03L13.0197 21.111L6.53935 14.7918L15.4965 13.4898L19.5001 5.37663L23.5036 13.4898L32.4608 14.7918L25.9804 21.1068Z" fill="black" fill-opacity="0.85"/>
</g>
</svg>
