<svg width="39" height="38" viewBox="0 0 39 38" fill="none" xmlns="http://www.w3.org/2000/svg">
<g id="User">
<path id="Vector" d="M34.1946 29.6652C33.3946 27.7702 32.2336 26.0489 30.7763 24.5972C29.3234 23.1412 27.6024 21.9804 25.7082 21.1789C25.6912 21.1704 25.6743 21.1661 25.6573 21.1576C28.2995 19.2492 30.0171 16.1405 30.0171 12.6331C30.0171 6.82282 25.3095 2.11523 19.4993 2.11523C13.689 2.11523 8.98141 6.82282 8.98141 12.6331C8.98141 16.1405 10.699 19.2492 13.3412 21.1619C13.3243 21.1704 13.3073 21.1746 13.2903 21.1831C11.3903 21.9847 9.68543 23.134 8.22226 24.6014C6.76634 26.0543 5.60554 27.7753 4.80396 29.6695C4.01648 31.5239 3.59178 33.5121 3.55284 35.5264C3.55171 35.5717 3.55965 35.6167 3.57619 35.6588C3.59273 35.701 3.61755 35.7394 3.64917 35.7718C3.68078 35.8042 3.71857 35.83 3.7603 35.8476C3.80202 35.8651 3.84685 35.8742 3.89213 35.8742H6.43677C6.62338 35.8742 6.77181 35.7257 6.77605 35.5434C6.86088 32.2693 8.17561 29.203 10.4997 26.8789C12.9044 24.4742 16.0979 23.151 19.4993 23.151C22.9006 23.151 26.0941 24.4742 28.4988 26.8789C30.8229 29.203 32.1377 32.2693 32.2225 35.5434C32.2267 35.73 32.3752 35.8742 32.5618 35.8742H35.1064C35.1517 35.8742 35.1965 35.8651 35.2382 35.8476C35.28 35.83 35.3178 35.8042 35.3494 35.7718C35.381 35.7394 35.4058 35.701 35.4223 35.6588C35.4389 35.6167 35.4468 35.5717 35.4457 35.5264C35.4033 33.4992 34.9834 31.5271 34.1946 29.6652ZM19.4993 19.9277C17.5526 19.9277 15.7205 19.1686 14.3421 17.7902C12.9638 16.4119 12.2046 14.5797 12.2046 12.6331C12.2046 10.6864 12.9638 8.8543 14.3421 7.47595C15.7205 6.0976 17.5526 5.33845 19.4993 5.33845C21.4459 5.33845 23.2781 6.0976 24.6564 7.47595C26.0348 8.8543 26.7939 10.6864 26.7939 12.6331C26.7939 14.5797 26.0348 16.4119 24.6564 17.7902C23.2781 19.1686 21.4459 19.9277 19.4993 19.9277Z" fill="black" fill-opacity="0.85"/>
</g>
</svg>
